<svg xmlns="http://www.w3.org/2000/svg" xmlns:xlink="http://www.w3.org/1999/xlink" width="450" height="450" version="1.1">

    <defs>
        <linearGradient id="linearGradient6379">
            <stop style="stop-color:#808080;stop-opacity:1;" offset="0"/>
            <stop style="stop-color:#cccccc;stop-opacity:0;" offset="1"/>
        </linearGradient>

        <linearGradient id="linearGradient8636" xlink:href="#linearGradient6379" gradientUnits="userSpaceOnUse" x1="395.75739" y1="204.46342" x2="403.16882" y2="204.46342" gradientTransform="matrix(0.91337652,-0.35805709,0.35536104,0.92030613,-529.76669,363.44388)"/>
        <linearGradient id="linearGradient8638" xlink:href="#linearGradient6379" gradientUnits="userSpaceOnUse" x1="395.55634" y1="205.7504" x2="401.51883" y2="205.7504" gradientTransform="matrix(0.91337652,-0.35805709,0.35536104,0.92030613,-529.76669,363.44388)"/>
        <linearGradient id="linearGradient8644" xlink:href="#linearGradient6379" gradientUnits="userSpaceOnUse" x1="416.07651" y1="196.84195" x2="419.66617" y2="206.52315" gradientTransform="matrix(0.98007047,0,0,0.98750608,-483.89278,206.94757)"/>
        <linearGradient id="linearGradient8646" xlink:href="#linearGradient6379" gradientUnits="userSpaceOnUse" x1="422.38879" y1="215.07104" x2="417.15167" y2="206.52881" gradientTransform="matrix(0.98007047,0,0,0.98750608,-483.89278,206.94757)"/>
        <linearGradient id="linearGradient8648" xlink:href="#linearGradient6379" gradientUnits="userSpaceOnUse" x1="417.09088" y1="204.71272" x2="418.77902" y2="207.98724" gradientTransform="matrix(0.98007047,0,0,0.98750608,-483.89278,206.94757)"/>
        <linearGradient id="linearGradient6395" xlink:href="#linearGradient6379" gradientUnits="userSpaceOnUse" x1="430.10574" y1="391.45087" x2="469.69684" y2="391.45087" gradientTransform="translate(-492.85714,203.79078)"/>
        <linearGradient id="linearGradient6335" xlink:href="#linearGradient6379" gradientUnits="userSpaceOnUse" x1="395.75739" y1="204.46342" x2="403.16882" y2="204.46342" gradientTransform="matrix(-1.0809951,-0.03693509,0.02876571,-1.0807468,378.73237,841.20785)"/>
        <linearGradient id="linearGradient6337" xlink:href="#linearGradient6379" gradientUnits="userSpaceOnUse" x1="395.55634" y1="205.7504" x2="401.51883" y2="205.7504" gradientTransform="matrix(-1.0809951,-0.03693509,0.02876571,-1.0807468,378.73237,841.20785)"/>
        <linearGradient id="linearGradient6387" xlink:href="#linearGradient6379" gradientUnits="userSpaceOnUse" x1="417.99152" y1="394.25943" x2="450.57605" y2="394.25943" gradientTransform="translate(-492.85714,203.79078)"/>
    </defs>

    <!--cross-->
    <path fill="#808080" id="cross_stroke" d="m 102.2,0 97.3,199.4 -199.4,-97.3 0,245.7 199.4,-97.3 -97.3,199.4 245.7,0 -97.3,-199.4 199.4,97.3 0,-245.7 -199.4,97.3 97.3,-199.4 -245.7,0 z"/>
    <path fill="#404040" id="cross_fill" d="m 117.1,9.3 102.6,210.4 -210.3,-102.6 0,215.8 210.4,-102.6 -102.6,210.4 215.8,0 -102.6,-210.4 210.4,102.6 0,-215.8 -210.5,102.6 102.6,-210.4 -215.8,0 z"/>
    <circle fill="#505050" cx="225" cy="225" r="93.7"/>

    <!--trident-->
    <path fill="#808080" d="  m 225,152.8 c -3.4,3.8 -5.4,8.8 -5.4,14.3 0.2,12 1.7,24 1.8,36 0.3,11.2 -3.1,21.7 -7.2,31.9 -1.4,2.8 -2.8,5.6 -4.3,8.4 l -4.3,-0.9 c -3.9,-0.8 -6.4,-4.6 -5.7,-8.5 0.7,-3.4 3.7,-5.8 7,-5.8 l 1.6,0.2 -3.5,-29.4 c -1.1,-13.1 -7.9,-24.5 -17.8,-32 -1.7,-1.3 -3.5,-2.5 -5.4,-3.5 l 0,104.3 24.1,0 c 1.8,9.8 7.2,18.3 14.7,24.1 1.8,1.2 3.3,2.9 4.4,4.8 1.1,-1.9 2.6,-3.5 4.4,-4.8 7.6,-5.8 12.9,-14.4 14.7,-24.1 l 24.1,0 0,-104.3 c -1.9,1 -3.7,2.2 -5.4,3.5 -9.9,7.5 -16.7,18.9 -17.8,32 l -3.5,29.4 1.6,-0.2 c 3.3,0 6.3,2.4 7,5.8 0.8,3.9 -1.8,7.7 -5.7,8.5 l -4.3,0.9 c -1.5,-2.8 -2.9,-5.5 -4.3,-8.4 -4.1,-10.3 -7.4,-20.8 -7.2,-31.9 0.1,-12 1.6,-24 1.8,-36 0,-5.5 -2,-10.5 -5.4,-14.3 z m -36,25.8 c 4.7,5.5 7.8,12.3 8.7,19.8 l 2.9,24.2 c -3.7,1.8 -6.5,5.2 -7.5,9.3 l -4.1,0 0,-53.3 z m 72,0 0,53.3 -4.1,0 c -1.1,-4.1 -3.8,-7.4 -7.5,-9.3 l 2.9,-24.2 c 0.9,-7.5 4.1,-14.3 8.7,-19.8 z m -36,48.7 c 1.9,6.3 4.6,12.3 7.9,17.9 -3.1,1 -5.9,2.8 -7.9,5.3 -2,-2.5 -4.8,-4.4 -7.9,-5.3 3.3,-5.6 6,-11.6 7.9,-17.9 z m -36,11.5 c 5.6,3.4 10.5,8.2 14.7,13.5 -4.2,5.3 -9.2,10.1 -14.7,13.5 3.4,-4.9 6.2,-9.9 7.9,-15.5 l 2.1,-1.4 z"/>
</svg>
